<?xml version="1.0" encoding="UTF-8" standalone="no"?>
<svg width="189px" height="32px" viewBox="0 0 189 32" version="1.1" xmlns="http://www.w3.org/2000/svg" xmlns:xlink="http://www.w3.org/1999/xlink" xmlns:sketch="http://www.bohemiancoding.com/sketch/ns">
    <!-- Generator: Sketch 3.3.3 (12072) - http://www.bohemiancoding.com/sketch -->
    <title>autodesk</title>
    <desc>Created with Sketch.</desc>
    <defs></defs>
    <g id="Page-1" stroke="none" stroke-width="1" fill="none" fill-rule="evenodd" sketch:type="MSPage">
        <g id="Logos" sketch:type="MSArtboardGroup" transform="translate(-115.000000, -284.000000)" fill="#CCEEFF">
            <path d="M148.496446,315.000268 L135.457446,284.790268 C135.457446,284.790268 135.216446,284.003268 134.124446,284.007268 C134.124446,284.007268 125.180446,283.990268 124.971446,284.008268 C124.427446,284.054268 123.983446,284.413268 123.826446,284.665268 C123.822446,284.670268 115.153446,304.996268 115.153446,304.996268 C114.933446,305.584268 114.971446,306.014268 115.132446,306.362268 L119.659446,314.623268 C120.096446,315.398268 121.196446,315.484268 121.196446,315.484268 C122.336446,315.560268 124.444446,314.517268 124.859446,314.281268 C125.260446,314.053268 134.712446,307.781268 135.996446,307.000268 L122.996446,307.000268 L129.635446,292.154268 C133.271446,300.645268 139.496446,315.000268 139.496446,315.000268 L148.496446,315.000268 Z M212.07935,298.304632 C211.960668,302.126985 214.820271,305.279198 218.545429,305.426526 C222.223523,305.572832 225.306164,302.58534 225.454516,298.733316 C225.599798,294.953934 222.668577,291.733172 218.982298,291.620629 C215.268395,291.507064 212.197008,294.480232 212.07935,298.304632 Z M157.354191,303 L155.279517,308.004268 L151.596446,308.004268 L160.043782,289.038305 L163.27135,289.004268 L171.718686,308.004268 L168.065649,308.004268 L165.875854,303 L157.354191,303 L157.354191,303 Z M158.597933,300 L161.5,293 L164.563098,300 L158.597933,300 L158.597933,300 Z M208.637595,298.347602 C208.849379,292.800279 213.559795,288.30881 218.957743,288.506271 C224.562361,288.711917 229.207297,293.394709 228.911617,298.695461 C228.571943,304.812658 224.005787,308.572601 218.599654,308.498937 C212.926488,308.42118 208.435018,303.658586 208.637595,298.347602 Z M198,292 L198,307.999999 L201,308.004268 L201,292 L206.634518,292 L208,289.004268 L192.016446,289.004268 L192.016446,291.960962 L198,292 Z M181.249505,304.815159 C178.633663,304.815159 176.512871,302.72407 176.512871,300.142882 L176.512871,289.004268 L173,289.004268 L173,299.866644 C173,304.361693 176.693069,308.004268 181.249505,308.004268 C185.805941,308.004268 189.5,304.361693 189.5,299.866644 L189.5,289.004268 L185.986139,289.004268 L185.986139,300.142882 C185.986139,302.72407 183.865347,304.815159 181.249505,304.815159 Z M276.904173,296.782783 C272.291943,295.497616 272.8246,293.553864 273.066153,293.007797 C273.308739,292.460698 274.086047,291.497597 277.038369,291.497597 C279.990692,291.497597 282.056285,292.693989 282.056285,292.693989 L283.344571,290.117461 C283.263021,289.987396 280.902196,288.581454 276.984691,288.501969 C273.066153,288.42455 269.604916,290.637722 269.604916,293.710768 C269.604916,296.782783 271.495022,298.241371 275.213297,299.308731 C279.425002,300.516478 280.71432,301.573515 280.71432,303.110555 C280.71432,304.646562 279.851334,305.765535 276.791654,305.765535 C274.17792,305.765535 271.018109,303.734042 270.23564,303.148749 L269,305.747987 C270.012667,306.408635 273.736103,308.5 277.01153,308.5 C280.71432,308.5 283.827679,306.70283 283.934004,302.98049 C284.041361,299.256085 281.096264,297.952337 276.904173,296.782783 Z M302.547834,289 L298.378056,289 L290,297.58461 L290,289.013099 L287,289.013099 L287,307.990932 L290.064485,307.990932 L290.064485,298.473299 C290.064485,298.473299 296.088826,304.533913 299.21838,308 L303.5,308 C300.420825,304.833165 296.602084,300.917696 293.968261,298.202259 C296.604099,295.373973 299.701411,292.052978 302.547834,289 Z M256,304.97998 L256,300 L262.979492,300 L262.979492,297 L256.041404,297 L256.041404,292 L266,292 L266,289 L253,289 L253,308 L266,308 L266,304.97523 L256,304.97998 Z M235,304.963251 C236.722547,304.963251 238.857369,305.205415 240.447723,304.963251 C243.706132,304.469842 245.903968,301.712202 245.843422,298.525729 C245.780857,295.204049 243.687968,292.792501 240.275165,292.30111 C238.764531,292.084172 235,292 235,292 L235,304.963251 Z M244.890824,290.695766 C247.343537,292.208344 249.176383,297.461547 249.176383,297.461547 C249.176383,297.461547 249.251648,299.579779 249.038257,300.693095 C248.373255,304.166128 244.987698,307.550368 241.359956,307.865181 C238.27915,308.13257 235.154953,307.919667 231.996446,307.919667 L231.996446,289.021809 C236.379001,289.279108 240.828156,288.191388 244.890824,290.695766 Z" id="autodesk" sketch:type="MSShapeGroup"></path>
        </g>
    </g>
</svg>