<?xml version="1.0" encoding="UTF-8" standalone="no"?>
<svg width="115px" height="35px" viewBox="0 0 115 35" version="1.1" xmlns="http://www.w3.org/2000/svg" xmlns:xlink="http://www.w3.org/1999/xlink" xmlns:sketch="http://www.bohemiancoding.com/sketch/ns">
    <!-- Generator: Sketch 3.3.3 (12072) - http://www.bohemiancoding.com/sketch -->
    <title>int</title>
    <desc>Created with Sketch.</desc>
    <defs></defs>
    <g id="Page-1" stroke="none" stroke-width="1" fill="none" fill-rule="evenodd" sketch:type="MSPage">
        <g id="Logos" sketch:type="MSArtboardGroup" transform="translate(-115.000000, -189.000000)" fill="#CCEEFF">
            <path d="M193.989,199.004 L190.647,199.004 C190.282,199.006 189.887,199.157 189.569,199.394 C189.255,199.631 189.008,199.964 189.006,200.354 L189.005,215.583 C186.52,217.434 184.653,218.101 183.38,218.099 C182.667,218.098 182.053,217.896 181.615,217.572 C180.96,217.087 180.555,216.316 180.318,215.535 C180.078,214.754 180.006,213.968 179.996,213.474 L179.996,200.318 C179.996,199.592 179.406,199.004 178.682,199.004 L175.335,199.004 C174.609,199.006 174.022,199.592 174.021,200.318 L174.021,215.341 C174.02,215.358 174.015,215.447 174.015,215.603 C174.015,216.178 174.09,217.6 174.756,219.105 C175.421,220.609 176.688,222.195 179.049,223.057 L179.051,223.058 L179.052,223.058 C179.988,223.381 180.911,223.519 181.8,223.519 C185.02,223.516 187.776,221.734 189.265,220.505 L189.265,221.75 C189.265,222.477 189.854,223.064 190.581,223.065 L193.989,223.065 C194.351,223.069 194.628,222.905 194.777,222.653 C194.929,222.403 194.977,222.088 194.977,221.75 L194.977,200.318 C194.977,199.981 194.929,199.666 194.777,199.416 C194.628,199.164 194.351,199.001 193.989,199.004 L193.989,199.004 Z M142.015,199.052 L142.014,199.051 L142.012,199.051 C141.079,198.729 140.161,198.592 139.276,198.592 C136.072,198.595 133.477,200.368 131.995,201.591 L131.995,200.351 C131.995,199.628 131.409,199.044 130.686,199.043 L127.309,199.043 C126.586,199.044 126,199.628 126,200.351 L126,221.683 C126,222.407 126.586,222.992 127.309,222.992 L130.686,222.992 C131.047,222.992 131.376,222.845 131.612,222.609 C131.849,222.373 131.995,222.045 131.995,221.683 L131.995,206.529 C134.606,204.711 136.328,204.057 137.644,204.059 C138.401,204.06 138.976,204.271 139.425,204.601 C140.099,205.097 140.493,205.879 140.718,206.65 C140.943,207.417 140.998,208.168 141.009,208.586 L141.009,221.683 C141.009,222.407 141.595,222.99 142.319,222.992 L145.674,222.992 C146.397,222.991 146.984,222.407 146.984,221.683 L146.984,206.73 C146.985,206.713 146.991,206.625 146.991,206.472 C146.991,205.902 146.916,204.485 146.253,202.987 C145.591,201.49 144.366,199.91 142.015,199.052 L142.015,199.052 Z M168.668,199.006 L151.319,199.012 C150.594,199.012 150.006,199.598 150.006,200.322 L150.006,203.696 C150.006,204.419 150.417,205.003 151.141,205.004 L157,205.004 L157.004,221.686 C157.004,222.411 157.591,222.995 158.316,222.997 L161.674,222.997 C162.399,222.996 162.987,222.411 162.987,221.686 L163,205.004 L168.668,205.002 C169.394,205.001 169.98,204.413 169.98,203.69 L169.98,200.317 C169.98,199.956 169.834,199.627 169.597,199.39 C169.359,199.153 169.03,199.006 168.668,199.006 L168.668,199.006 Z M204.694,199.004 L201.306,199.004 C200.585,199.006 200.002,199.59 200,200.315 L200,221.693 C200.002,222.418 200.585,223.002 201.306,223.004 L204.694,223.004 C205.416,223.002 205.998,222.418 206,221.693 L206,200.315 C205.998,199.59 205.416,199.006 204.694,199.004 L204.694,199.004 Z M119.693,199.004 L116.306,199.004 C115.585,199.006 115,199.59 115,200.315 L115,221.693 C115,222.418 115.585,223.004 116.306,223.004 L119.693,223.004 C120.055,223.004 120.381,222.856 120.618,222.62 C120.854,222.383 121,222.054 121,221.693 L121,200.315 C121,199.59 120.415,199.006 119.693,199.004 L119.693,199.004 Z M164,193.004 C164,195.213 162.209,197.004 160,197.004 C157.791,197.004 156,195.213 156,193.004 C156,190.795 157.791,189.004 160,189.004 C162.209,189.004 164,190.795 164,193.004 L164,193.004 Z M228.668,199.002 L211.318,199.007 C210.594,199.007 210.005,199.594 210.005,200.318 L210.005,203.691 C210.005,204.415 210.416,204.999 211.141,205 L217,205 L217.003,221.682 C217.003,222.407 217.591,222.991 218.316,222.993 L221.674,222.993 C222.399,222.992 222.987,222.407 222.987,221.682 L223,205 L228.668,204.997 C229.394,204.996 229.98,204.409 229.98,203.686 L229.98,200.313 C229.98,199.951 229.834,199.623 229.596,199.385 C229.359,199.148 229.03,199.002 228.668,199.002 L228.668,199.002 Z M224,193 C224,195.209 222.209,197 220,197 C217.79,197 216,195.209 216,193 C216,190.79 217.79,189 220,189 C222.209,189 224,190.79 224,193 L224,193 Z" id="int" sketch:type="MSShapeGroup"></path>
        </g>
    </g>
</svg>