<?xml version="1.0" encoding="UTF-8" standalone="no"?>
<svg width="88px" height="56px" viewBox="0 0 88 56" version="1.1" xmlns="http://www.w3.org/2000/svg" xmlns:xlink="http://www.w3.org/1999/xlink" xmlns:sketch="http://www.bohemiancoding.com/sketch/ns">
    <!-- Generator: Sketch 3.3.3 (12072) - http://www.bohemiancoding.com/sketch -->
    <title>mast</title>
    <desc>Created with Sketch.</desc>
    <defs></defs>
    <g id="Page-1" stroke="none" stroke-width="1" fill="none" fill-rule="evenodd" sketch:type="MSPage">
        <g id="Logos" sketch:type="MSArtboardGroup" transform="translate(-407.000000, -88.000000)" fill="#CCEEFF">
            <path d="M495,115.859847 C495,130.918236 482.747833,143.172847 467.689444,143.172847 C461.407833,143.172847 455.617556,141.036403 450.998778,137.463847 C446.381833,141.036403 440.591556,143.172847 434.310556,143.172847 C419.251556,143.172847 407,130.918236 407,115.859847 C407,100.800847 419.251556,88.5517361 434.310556,88.5517361 C440.591556,88.5517361 446.381833,90.6802361 450.998778,94.2582917 C455.617556,90.6802361 461.407833,88.5517361 467.689444,88.5517361 C482.747833,88.5517361 495,100.800847 495,115.859847 L495,115.859847 Z M467.689444,90.9937361 C462.149111,90.9937361 457.034722,92.808125 452.903,95.871625 C456.650333,99.3592361 459.421722,103.888181 460.746,108.992181 L458.214778,108.992181 C456.918,104.479736 454.383111,100.495903 450.998778,97.4299583 C447.616889,100.495903 445.080167,104.479736 443.788278,108.992181 L441.253389,108.992181 C442.580722,103.888181 445.352111,99.3592361 449.099444,95.871625 C444.965278,92.808125 439.852722,90.9937361 434.310556,90.9937361 C420.578889,90.9937361 409.446889,102.125125 409.446889,115.859847 C409.446889,129.590903 420.578889,140.725958 434.310556,140.725958 C439.852722,140.725958 444.965278,138.910958 449.099444,135.848069 C445.573333,132.563958 442.913167,128.356458 441.507,123.620347 L444.066333,123.620347 C445.426056,127.767347 447.839944,131.427903 450.998778,134.289125 C454.160056,131.427903 456.577,127.767347 457.936722,123.620347 L460.495444,123.620347 C459.086222,128.356458 456.427278,132.563958 452.903,135.848069 C457.034722,138.910958 462.149111,140.725958 467.689444,140.725958 C481.4205,140.725958 492.5525,129.590903 492.5525,115.859847 C492.5525,102.125125 481.4205,90.9937361 467.689444,90.9937361 L467.689444,90.9937361 Z M424.246778,109.932681 L420.265389,109.932681 L417.777556,117.350347 L417.673667,109.932681 L413.984389,109.932681 L411.981167,121.917181 L414.382222,121.917181 L415.924667,112.760903 L416.139778,121.917181 L417.888778,121.917181 L421.167389,112.706514 L419.698278,121.917181 L422.263111,121.917181 L424.246778,109.932681 L424.246778,109.932681 Z M429.015278,117.574014 C428.745778,117.546514 428.628444,117.535514 428.443278,117.535514 C426.988222,117.535514 426.254889,118.034181 426.254889,119.015014 C426.254889,119.623069 426.614833,120.009903 427.170333,120.009903 C428.217167,120.009903 428.968833,119.015014 429.015278,117.574014 L429.015278,117.574014 Z M430.879167,121.917181 L428.753722,121.917181 L428.803222,120.906403 C428.154222,121.705125 427.290722,122.086458 426.116167,122.086458 C424.724056,122.086458 423.775611,120.999292 423.775611,119.426903 C423.775611,117.050292 425.429278,115.669181 428.274611,115.669181 C428.566111,115.669181 428.938889,115.696069 429.320833,115.744958 C429.399667,115.420458 429.419222,115.284792 429.419222,115.110014 C429.419222,114.467125 428.974944,114.224514 427.775333,114.224514 C426.521944,114.208014 425.486722,114.521514 425.061389,114.663292 C425.088889,114.500125 425.418889,112.472458 425.418889,112.472458 C426.694278,112.096014 427.538222,111.954847 428.486667,111.954847 C430.6885,111.954847 431.855111,112.941181 431.852667,114.810569 C431.855111,115.311681 431.773222,115.930125 431.6455,116.745347 C431.421833,118.153958 430.945167,121.178958 430.879167,121.917181 L430.879167,121.917181 Z M464.376,109.638125 C460.977611,109.638125 458.601,112.630125 458.601,116.914625 C458.601,120.097292 460.321278,122.086458 463.081667,122.086458 C463.789944,122.086458 464.402889,121.993569 465.345833,121.732014 L465.795611,119.004625 C464.948,119.421403 464.250722,119.620014 463.617611,119.620014 C462.127111,119.620014 461.227556,118.519403 461.227556,116.701347 C461.227556,114.060736 462.5665,112.210292 464.482333,112.210292 C465.193056,112.210292 465.857944,112.396069 466.774,112.859292 L467.193222,110.259625 C466.817389,110.112347 465.495556,109.638125 464.376,109.638125 L464.376,109.638125 Z M471.766167,117.574014 C471.499111,117.546514 471.379333,117.535514 471.191111,117.535514 C469.7385,117.535514 469.002722,118.034181 469.002722,119.015014 C469.002722,119.623069 469.362667,120.009903 469.924278,120.009903 C470.968056,120.009903 471.722778,119.015014 471.766167,117.574014 L471.766167,117.574014 Z M473.630056,121.917181 L471.507667,121.917181 L471.556556,120.906403 C470.905111,121.705125 470.038556,122.086458 468.866444,122.086458 C467.476778,122.086458 466.522833,120.999292 466.522833,119.426903 C466.522833,117.050292 468.182611,115.669181 471.024889,115.669181 C471.316389,115.669181 471.689778,115.696069 472.071722,115.744958 C472.149944,115.420458 472.1695,115.284792 472.1695,115.110014 C472.1695,114.467125 471.725222,114.224514 470.528667,114.224514 C469.272222,114.208014 468.240056,114.521514 467.814722,114.663292 C467.839167,114.500125 468.169167,112.472458 468.169167,112.472458 C469.447,112.096014 470.291556,111.954847 471.2345,111.954847 C473.439389,111.954847 474.606,112.941181 474.602944,114.810569 C474.608444,115.311681 474.524111,115.930125 474.395778,116.745347 C474.175167,118.153958 473.696056,121.178958 473.630056,121.917181 L473.630056,121.917181 Z M443.482722,119.612069 C443.311611,119.671958 443.084889,119.704347 442.793389,119.704347 C442.182889,119.704347 441.913389,119.486792 441.913389,118.982014 C441.918889,118.672181 442.341167,116.366458 442.635722,114.516014 L443.951444,114.516014 L444.300389,112.172403 L442.989556,112.172403 L443.286556,110.701458 L440.738833,110.701458 C440.738833,110.701458 439.773889,116.437347 439.629667,117.344847 C439.4665,118.383125 439.259333,119.514292 439.275222,119.944514 C439.275222,121.331736 439.989,122.086458 441.299833,122.086458 C441.894444,122.086458 442.442,121.988069 443.145389,121.770514 L443.482722,119.612069 L443.482722,119.612069 Z M451.325722,121.694125 C450.448167,121.961181 449.603,122.086458 448.709556,122.086458 C445.853222,122.080958 444.365778,120.590458 444.365778,117.737181 C444.365778,114.407236 446.259611,111.954847 448.829333,111.954847 C450.930333,111.954847 452.274167,113.325569 452.274167,115.483403 C452.274167,116.197181 452.178833,116.892625 451.958222,117.882014 L446.883556,117.882014 C446.711833,119.290014 447.616889,119.879125 449.099444,119.879125 C450.011833,119.879125 450.832556,119.693958 451.748,119.268625 L451.325722,121.694125 L451.325722,121.694125 Z M449.892056,115.914236 C449.908556,115.712569 450.161556,114.169514 448.7065,114.169514 C447.894944,114.169514 447.311333,114.794069 447.077278,115.914236 L449.892056,115.914236 L449.892056,115.914236 Z M432.85,115.251792 C432.85,116.486847 433.444,117.333847 434.800667,117.974292 C435.839556,118.465014 436.000278,118.606181 436.000278,119.051069 C436.000278,119.655458 435.541944,119.928014 434.525667,119.928014 C433.762389,119.928014 433.048611,119.813736 432.2285,119.546681 C432.2285,119.546681 431.890556,121.694125 431.874056,121.798014 C432.460111,121.923292 432.977722,122.042458 434.544611,122.086458 C437.250611,122.086458 438.499111,121.053681 438.499111,118.829847 C438.499111,117.486625 437.977833,116.707458 436.691444,116.115903 C435.618333,115.619681 435.493056,115.510903 435.493056,115.055625 C435.493056,114.527014 435.920833,114.259958 436.751944,114.259958 C437.253056,114.259958 437.942389,114.314347 438.591389,114.407236 L438.956833,112.145514 C438.291944,112.041625 437.286056,111.954847 436.7,111.954847 C433.830833,111.954847 432.839,113.450847 432.85,115.251792 L432.85,115.251792 Z M488.072444,121.917181 L485.6445,121.917181 L485.767333,121.010292 C485.0615,121.759514 484.339778,122.086458 483.402333,122.086458 C481.537833,122.086458 480.306444,120.481681 480.306444,118.045181 C480.306444,114.799569 482.216167,112.069125 484.477889,112.069125 C485.470333,112.069125 486.228111,112.472458 486.928444,113.395847 L487.494944,109.932681 L490.023722,109.932681 L488.072444,121.917181 L488.072444,121.917181 Z M484.287833,119.667069 C485.481333,119.667069 486.323444,118.312236 486.323444,116.382958 C486.323444,115.143014 485.846778,114.472625 484.963111,114.472625 C483.799556,114.472625 482.973944,115.826847 482.973944,117.742681 C482.973944,119.020514 483.415778,119.667069 484.287833,119.667069 L484.287833,119.667069 Z M476.377,112.172403 C476.055556,115.186403 475.486,118.241347 475.041722,121.260847 L474.925,121.917181 L477.486167,121.917181 C478.404667,115.957625 478.627722,114.794069 480.064444,114.941347 C480.292389,113.717292 480.717722,112.652125 481.039167,112.112514 C479.963611,111.888847 479.3635,112.499347 478.581889,113.652514 C478.644222,113.150792 478.756056,112.668014 478.731611,112.172403 L476.377,112.172403 L476.377,112.172403 Z M453.963889,112.172403 C453.641833,115.186403 453.069833,118.241347 452.625556,121.260847 L452.508222,121.917181 L455.072444,121.917181 C455.990944,115.957625 456.211556,114.794069 457.647667,114.941347 C457.879278,113.717292 458.307056,112.652125 458.623611,112.112514 C457.552333,111.888847 456.947333,112.499347 456.165111,113.652514 C456.228056,113.150792 456.339278,112.668014 456.317889,112.172403 L453.963889,112.172403 L453.963889,112.172403 Z" id="mast" sketch:type="MSShapeGroup"></path>
        </g>
    </g>
</svg>