<?xml version="1.0" encoding="UTF-8" standalone="no"?>
<svg width="85px" height="52px" viewBox="0 0 85 52" version="1.1" xmlns="http://www.w3.org/2000/svg" xmlns:xlink="http://www.w3.org/1999/xlink" xmlns:sketch="http://www.bohemiancoding.com/sketch/ns">
    <!-- Generator: Sketch 3.3.3 (12072) - http://www.bohemiancoding.com/sketch -->
    <title>mtv</title>
    <desc>Created with Sketch.</desc>
    <defs></defs>
    <g id="Page-1" stroke="none" stroke-width="1" fill="none" fill-rule="evenodd" sketch:type="MSPage">
        <g id="Logos" sketch:type="MSArtboardGroup" transform="translate(-410.000000, -184.000000)" fill="#CCEEFF">
            <path d="M469.260192,231.182381 C469.260192,230.160353 469.398721,226.050516 469.398721,222.736507 C469.398721,219.943485 468.793,214.977174 468.793,212.277874 C468.791535,210.656381 468.912647,208.4565 468.733259,207.680778 C470.03179,206.844411 471.166722,206.3064 474.747653,204.14803 C475.907492,203.449166 478.121034,202.265476 478.121034,200.84294 C478.121034,200.211368 477.953855,199.798374 477.051866,199.061891 C476.423519,198.56166 475.748289,198.415564 474.984342,198.415564 C473.159692,198.415564 472.334212,200.236825 470.804039,201.169995 C468.470687,202.590748 467.2332,203.293503 466.754777,203.557644 C466.563343,203.471218 465.769769,203.000661 464.491423,203.000661 C463.158544,203.000661 461.605093,203.597371 461.605093,205.323775 C461.603791,206.116361 461.857897,206.972509 460.795566,207.52852 C460.201078,207.903409 457.297655,209.5549 454.20817,211.412321 C451.602481,212.978846 450.388923,212.852694 449.289966,213.511506 C448.274354,214.122161 448.009504,214.881993 448.009504,215.540968 C448.009504,216.128273 448.380652,216.865566 448.511531,217.029985 C449.210852,217.921158 449.8392,218.405336 450.941413,218.405336 C452.807573,218.405336 454.360537,216.778654 457.243285,214.737355 C459.041239,213.462375 460.690407,212.138588 461.655393,212.138588 C462.518802,212.138588 463.118174,212.786537 463.118174,215.453083 C463.118174,224.370811 462.574148,225.785402 462.574148,231.973183 C462.574148,233.08569 462.616472,235.143527 462.654564,236 L458,236 L458,222 L448.7658,229.062764 L440,222 L440,236 L410,236 L410,184 L438.840185,184 L448.7658,194.406097 L458.690601,184 L488,184 L488,206.235865 C486.76456,207.645267 483.962878,212.425268 482.076532,217.304504 C481.459742,218.898432 481.175195,220.05099 480.361924,220.05099 C479.469377,220.05099 479.394659,219.175059 479.310825,218.386364 C479.12867,216.67731 478.743847,213.484427 478.565598,212.30852 C478.220007,210.033403 477.767141,207.627269 475.217286,207.627269 C473.329964,207.627269 471.349529,208.656755 471.349529,211.472803 C471.349529,213.064947 472.15873,215.835107 473.544677,219.478603 C474.090493,220.915246 476.994892,228.498322 477.413085,229.59429 C478.179311,231.609158 479.244572,232.157871 480.903019,232.157871 C483.025565,232.157871 483.759723,231.380689 484.63241,228.414815 C485.375521,225.886907 486.635797,221.766206 488,219.184788 C487.681199,219.182356 488,236 488,236 L469.601225,236 C469.447394,234.703454 469.260192,232.830791 469.260192,231.182381 Z M495,236 L490,236 L490,216.244253 C491.018705,214.048913 493.475935,210.194785 495,208.5 L495,236 Z M490,184 L495,186.852694 L495,196.5 L495,198.129869 C493.596233,199.344206 491.147467,202.311701 490,204 L490,184 Z M451.393303,188.733464 L448.7658,191.487408 L441.656517,184.035349 L450.679005,187.984334 L451.393303,188.733464 L451.393303,188.733464 Z M454.5,231 L455.980049,229.488334 L455.980049,226.730011 L451,231 L454.5,231 Z M446,236 L446,229.799988 L442,226.5 L442,236 L446,236 Z" id="mtv" sketch:type="MSShapeGroup"></path>
        </g>
    </g>
</svg>