<?xml version="1.0" encoding="UTF-8" standalone="no"?>
<svg width="144px" height="37px" viewBox="0 0 144 37" version="1.1" xmlns="http://www.w3.org/2000/svg" xmlns:xlink="http://www.w3.org/1999/xlink" xmlns:sketch="http://www.bohemiancoding.com/sketch/ns">
    <!-- Generator: Sketch 3.3.3 (12072) - http://www.bohemiancoding.com/sketch -->
    <title>Pint</title>
    <desc>Created with Sketch.</desc>
    <defs></defs>
    <g id="Page-1" stroke="none" stroke-width="1" fill="none" fill-rule="evenodd" sketch:type="MSPage">
        <g id="Logos" sketch:type="MSArtboardGroup" transform="translate(-115.000000, -97.000000)" fill="#CCEEFF">
            <path d="M148.063288,110.34792 C149.625821,110.34792 151.124905,109.047087 151.385676,107.442254 C151.694093,105.880185 150.63474,104.579352 149.073368,104.579352 C147.511532,104.579352 146.012215,105.880185 145.747726,107.442254 C145.443028,109.047087 146.458687,110.34792 148.063288,110.34792 Z M190.252395,114.833087 C191.777277,114.833087 192.306954,115.759963 192.306954,116.864404 C192.306954,118.73303 190.858072,119.872566 188.591782,119.872566 C187.780417,119.872566 186.646459,119.680126 185.9771,119.457239 C186.257394,117.738754 187.360441,114.833087 190.252395,114.833087 Z M223.028881,114.833087 C224.422216,114.833087 225.084137,115.759963 225.084137,116.864404 C225.084137,118.73303 223.635023,119.872566 221.3685,119.872566 C220.556903,119.872566 219.422945,119.680126 218.753819,119.457239 C219.035275,117.738754 220.278934,114.833087 223.028881,114.833087 L223.028881,114.833087 Z M254.096876,114.990898 L257.592183,114.990898 C258.071192,114.990898 258.351719,114.796365 258.459792,114.349429 C258.614116,113.705869 258.89534,112.583066 258.975756,112.275812 C259.079181,111.8735 258.845138,111.56857 258.398899,111.56857 L254.949844,111.56857 C255.198296,110.580104 256.165612,107.371134 256.165612,105.278692 C256.165612,101.100315 252.618012,97.546207 247.583646,97.546207 C241.89805,97.546207 238.199148,101.36155 238.199148,106.730828 C238.199148,108.296848 238.782977,110.122244 239.507418,111.254576 C239.205045,111.237377 238.893142,111.22808 238.571246,111.22808 C234.251095,111.22808 231.529966,113.571765 231.529966,116.981774 C231.529966,120.181912 234.053308,121.425803 236.428369,122.253205 C238.538475,122.988337 240.481009,123.330454 240.481009,124.978981 C240.481009,126.090163 239.411895,126.74209 237.319917,126.74209 C234.837713,126.74209 233.47343,125.573269 233.1262,125.130052 C233.361406,124.945049 233.711192,124.505085 233.711192,123.772044 C233.711192,122.746624 232.991167,121.909926 231.653147,121.909926 C230.520816,121.909926 229.563958,122.833083 229.324105,124.047457 C227.506146,125.535153 225.522009,126.49875 222.707915,126.49875 C219.937282,126.49875 218.498858,125.057305 218.498858,121.990807 C219.148461,122.188361 220.839986,122.426122 221.957908,122.426122 C226.649227,122.426122 229.847274,120.294402 229.847274,116.025382 C229.847274,113.729808 227.831993,111.318955 223.845127,111.318955 L223.836063,111.318955 C218.592057,111.318955 215.655014,114.640647 214.372542,118.294461 C214.013459,118.207769 213.652982,118.122938 213.292737,118.042522 C213.579771,117.231622 213.785691,116.292428 213.785691,115.251436 C213.785691,113.446957 212.668235,111.318955 209.677969,111.318955 C207.595055,111.318955 205.619285,112.683238 204.249657,114.728035 C204.590147,113.394199 204.816055,112.506137 204.83093,112.446406 C204.919945,112.097549 204.774685,111.708717 204.230831,111.708717 L201.161544,111.708717 C200.724369,111.708717 200.41572,111.863274 200.291145,112.361341 C200.207708,112.693464 199.153468,116.831169 198.126654,120.859638 C197.47984,123.371591 194.135139,126.49875 189.930964,126.49875 C187.159634,126.49875 185.722372,124.96248 185.722372,121.895051 C186.447743,122.183712 188.0635,122.426122 189.180957,122.426122 C194.06309,122.426122 197.070323,120.294402 197.070323,116.025382 C197.070323,113.729808 195.055275,111.318955 191.067943,111.318955 L191.059112,111.318955 C185.154347,111.318955 181.537487,115.905223 180.924141,121.105301 C180.66918,123.267004 178.844714,126.235423 176.866852,126.235423 C175.903487,126.235423 175.365909,125.630211 175.365909,124.6027 C175.365909,123.715102 175.990876,121.545265 176.675341,118.825996 C176.904969,117.916552 177.253128,116.529028 177.638706,114.990898 L180.84907,114.990898 C181.326918,114.990898 181.607212,114.796365 181.715983,114.349429 C181.86961,113.705869 182.151298,112.583066 182.231249,112.275812 C182.334907,111.8735 182.102026,111.56857 181.654392,111.56857 L178.497716,111.56857 C178.497716,111.56857 179.951015,105.769787 179.985645,105.620809 C180.125327,105.031169 179.632372,104.690912 179.115943,104.79945 C179.115943,104.79945 176.676039,105.277065 176.223292,105.371426 C175.768454,105.46323 175.415646,105.71331 175.251095,106.369189 C175.230178,106.453091 173.958862,111.56857 173.958862,111.56857 L171.424131,111.56857 C170.946516,111.56857 170.665757,111.763567 170.558613,112.209806 C170.404289,112.852437 170.121206,113.976401 170.043114,114.283655 C169.938062,114.685968 170.172338,114.990898 170.619274,114.990898 L173.105197,114.990898 C173.087533,115.062017 172.207374,118.410436 171.495715,121.408605 C171.160339,122.850514 170.038001,126.224035 168.200054,126.224035 C167.102353,126.224035 166.63845,125.670419 166.63845,124.482308 C166.63845,122.61159 168.479884,117.928638 168.479884,115.803657 C168.479884,112.965391 166.957093,111.320814 163.837371,111.320814 C161.870898,111.320814 159.831911,112.590504 158.968021,113.704939 C158.968021,113.704939 159.229954,112.792706 159.319666,112.44199 C159.415422,112.071518 159.216706,111.707555 158.730259,111.707555 L155.680029,111.707555 C155.030891,111.707555 154.851466,112.054552 154.756175,112.436412 C154.718291,112.589342 153.619428,116.905774 152.564026,121.048592 C151.842142,123.885928 150.088562,126.256573 148.213893,126.256573 C147.249599,126.256573 146.820559,125.651826 146.820559,124.623849 C146.820559,123.73602 147.394162,121.545265 148.078627,118.825996 C148.911374,115.515693 149.646042,112.790149 149.724598,112.471507 C149.827094,112.063152 149.644647,111.707555 149.118689,111.707555 L146.049867,111.707555 C145.494392,111.707555 145.295444,111.999237 145.178539,112.404571 C145.178539,112.404571 144.31488,115.673969 143.40009,119.313838 C142.735845,121.955247 142.00234,124.645929 142.00234,125.909343 C142.00234,128.165407 143.015674,129.865763 145.800019,129.865763 C147.949171,129.865763 149.649993,128.775964 150.948734,127.387742 C150.757688,128.139376 150.636367,128.615132 150.623584,128.663474 C150.511559,129.093212 150.64729,129.473212 151.153725,129.473212 L154.293667,129.473212 C154.84031,129.473212 155.050647,129.253114 155.16453,128.776661 C155.274463,128.321823 157.620007,119.096761 157.620007,119.096761 C158.239861,116.618508 159.772878,114.977882 161.930164,114.977882 C162.953028,114.977882 163.838301,115.655143 163.73534,116.971316 C163.621689,118.419501 161.875314,123.620974 161.875314,125.903997 C161.875314,127.631779 162.516085,129.867158 165.768982,129.867158 C167.986232,129.867158 169.618723,128.804319 170.805672,127.432598 C171.240058,128.888453 172.39168,129.867158 174.503413,129.867158 C178.013594,129.867158 180.129045,127.785406 181.372007,125.694358 C182.403237,128.123804 184.819203,129.866228 188.36169,129.866228 C191.972275,129.866228 194.766381,128.344367 196.746567,126.274701 C196.390738,127.67036 196.14949,128.617456 196.129037,128.696942 C196.016548,129.13342 196.206664,129.476234 196.718909,129.476234 L199.826778,129.476234 C200.252332,129.476234 200.55517,129.259854 200.6658,128.812453 C200.72065,128.593052 201.169446,126.857601 201.80371,124.392131 C203.01669,119.673386 204.966429,114.77754 207.895569,114.77754 C208.928659,114.77754 209.352121,115.355326 209.352121,116.265003 C209.352121,116.694043 209.227546,117.064979 209.119937,117.263695 C207.699875,116.981309 206.557549,117.682277 206.557549,119.198559 C206.557549,120.186328 207.596914,121.084152 208.999778,121.084152 C210.071681,121.084152 210.957884,120.821754 211.664662,120.345533 C212.324724,120.481497 213.033593,120.635821 213.746878,120.798745 C213.637875,121.508079 213.583489,122.205327 213.583489,122.866783 C213.583489,126.654469 216.287884,129.866228 221.135852,129.866228 C224.933996,129.866228 227.540776,128.477077 229.791494,126.695607 C230.873158,128.465456 233.60428,129.895512 237.18744,129.895512 C242.098393,129.895512 244.883668,127.341724 244.883668,123.966577 C244.883668,120.911931 242.375666,119.786805 239.789339,118.851097 C237.687135,118.091561 235.933555,117.678558 235.933555,116.192721 C235.933555,114.974629 236.892504,114.417527 238.535686,114.417527 C239.601779,114.417527 240.40222,114.647154 240.829633,114.767081 C241.25356,115.828061 242.130699,117.002924 243.628156,117.002924 C244.895289,117.002924 245.464244,116.000978 245.464244,115.077589 C245.464244,112.450589 241.087848,112.175176 241.087848,106.540712 C241.087848,103.036806 243.07059,100.146711 247.176686,100.146711 C250.029594,100.146711 251.892642,101.955606 251.892642,104.875682 C251.892642,107.283049 250.432139,111.56857 250.432139,111.56857 L247.950864,111.56857 C247.473946,111.56857 247.19249,111.763567 247.084649,112.209806 C246.930325,112.852437 246.647707,113.976401 246.56822,114.283655 C246.463866,114.685968 246.697909,114.990898 247.145542,114.990898 L249.568713,114.990898 C249.568713,114.990898 247.063267,124.229207 247.063267,125.909343 C247.063267,128.165407 248.334583,129.865066 251.120323,129.865066 C255.060706,129.865066 257.52269,127.304537 258.593664,123.581231 C258.676869,123.293267 258.513713,123.058527 258.22203,123.058527 L256.718763,123.058527 C256.418714,123.058527 256.244634,123.23005 256.168866,123.523127 C255.829306,124.844645 254.987727,126.235423 253.3306,126.235423 C252.367468,126.235423 251.829889,125.630211 251.829889,124.6027 C251.829889,123.715102 252.417437,121.637302 253.140252,118.825996 C253.48353,117.487744 254.096876,114.990898 254.096876,114.990898 Z M129.955281,97.505999 C120.012984,97.505999 115,104.634202 115,110.578477 C115,114.177674 116.362656,117.379671 119.285289,118.573128 C119.764531,118.768822 120.193803,118.579868 120.332788,118.049262 C120.429473,117.681812 120.658171,116.755401 120.760434,116.370055 C120.900349,115.845027 120.845963,115.660953 120.459455,115.203558 C119.616714,114.209515 119.077974,112.922394 119.077974,111.099787 C119.077974,105.81139 123.034858,101.077305 129.380981,101.077305 C135.000571,101.077305 138.087987,104.511021 138.087987,109.096824 C138.087987,115.130347 135.417758,120.222817 131.453668,120.222817 C129.264308,120.222817 127.625774,118.412528 128.151035,116.192024 C128.779953,113.540853 129.998278,110.680043 129.998278,108.766329 C129.998278,107.053654 129.079073,105.62476 127.176049,105.62476 C124.938114,105.62476 123.140375,107.940089 123.140375,111.041218 C123.140375,113.016523 123.807874,114.35245 123.807874,114.35245 C123.807874,114.35245 121.517878,124.056057 121.116263,125.755251 C120.316752,129.139695 120.996104,133.288556 121.053511,133.707834 C121.087211,133.956287 121.406318,134.015088 121.550881,133.827296 C121.757034,133.557926 124.422615,130.267146 125.328806,126.979387 C125.585161,126.04856 126.800697,121.22732 126.800697,121.22732 C127.527927,122.614379 129.652676,123.835726 131.912458,123.835726 C138.63951,123.835726 143.203466,117.702962 143.203466,109.494256 C143.203466,103.286886 137.945981,97.505999 129.955281,97.505999 Z" id="Pint" sketch:type="MSShapeGroup"></path>
        </g>
    </g>
</svg>