<?xml version="1.0" encoding="UTF-8" standalone="no"?>
<svg width="105px" height="74px" viewBox="0 0 105 74" version="1.1" xmlns="http://www.w3.org/2000/svg" xmlns:xlink="http://www.w3.org/1999/xlink" xmlns:sketch="http://www.bohemiancoding.com/sketch/ns">
    <!-- Generator: Sketch 3.3.3 (12072) - http://www.bohemiancoding.com/sketch -->
    <title>sales</title>
    <desc>Created with Sketch.</desc>
    <defs></defs>
    <g id="Page-1" stroke="none" stroke-width="1" fill="none" fill-rule="evenodd" sketch:type="MSPage">
        <g id="Logos" sketch:type="MSArtboardGroup" transform="translate(-267.000000, -174.000000)" fill="#ffffff">
            <path d="M327.869058,200.152 C326.799058,200.152 325.954058,200.454 325.359058,201.05 C324.765058,201.644 324.359058,202.551 324.154058,203.743 L324.081058,204.145 L322.729058,204.141 L322.727058,204.141 C322.707058,204.141 322.561058,204.147 322.529058,204.314 L322.304058,205.55 C322.287058,205.668 322.338058,205.741 322.497058,205.742 L323.814058,205.745 L322.458058,213.183 C322.352058,213.781 322.231058,214.274 322.098058,214.648 C321.967058,215.016 321.838058,215.292 321.680058,215.492 C321.527058,215.685 321.383058,215.829 321.134058,215.911 C320.930058,215.978 320.696058,216.009 320.441058,216.009 L320.433058,216.009 C320.290058,216.009 320.098058,215.984 319.956058,215.955 C319.814058,215.928 319.740058,215.896 319.635058,215.852 C319.635058,215.852 319.605058,215.84 319.567058,215.84 C319.518058,215.84 319.454058,215.859 319.419058,215.946 C319.370058,216.072 319.017058,217.035 318.974058,217.154 C318.932058,217.272 318.990058,217.364 319.066058,217.391 C319.241058,217.453 319.371058,217.495 319.609058,217.551 C319.941058,217.63 320.220058,217.635 320.482058,217.636 L320.498058,217.636 C321.040058,217.636 321.534058,217.56 321.944058,217.414 C322.361058,217.264 322.724058,217.002 323.047058,216.65 C323.394058,216.268 323.614058,215.868 323.823058,215.321 C324.032058,214.781 324.209058,214.109 324.353058,213.325 L325.714058,205.75 L327.675058,205.755 L327.677058,205.755 C327.697058,205.755 327.844058,205.749 327.875058,205.582 L328.100058,204.347 C328.115058,204.229 328.066058,204.155 327.907058,204.155 L326.003058,204.15 C326.012058,204.108 326.100058,203.438 326.320058,202.811 C326.415058,202.541 326.591058,202.326 326.740058,202.177 C326.886058,202.031 327.055058,201.927 327.240058,201.868 C327.426058,201.809 327.638058,201.779 327.871058,201.779 L327.878058,201.779 C328.058058,201.779 328.233058,201.801 328.368058,201.828 C328.552058,201.868 328.624058,201.889 328.673058,201.903 C328.728058,201.92 328.769058,201.928 328.802058,201.928 C328.882058,201.928 328.903058,201.88 328.931058,201.813 L329.389058,200.566 C329.436058,200.432 329.323058,200.375 329.281058,200.358 C329.091058,200.298 328.918058,200.259 328.692058,200.218 C328.463058,200.175 328.191058,200.153 327.883058,200.152 L327.869058,200.152 M300.924058,200.275 C300.824058,200.274 300.753058,200.354 300.753058,200.454 L300.720058,213.143 C300.720058,213.242 300.791058,213.324 300.890058,213.324 L302.470058,213.328 C302.570058,213.328 302.641058,213.247 302.641058,213.147 L302.674058,200.459 C302.674058,200.359 302.603058,200.279 302.504058,200.279 L300.924058,200.275 M286.654058,203.838 L286.444058,203.839 L286.432058,203.839 C284.508058,203.839 283.164058,204.998 283.159058,206.662 L283.159058,206.696 C283.155058,208.453 284.639058,209.028 286.031058,209.428 L286.254058,209.498 C287.268058,209.811 288.141058,210.082 288.140058,210.793 L288.140058,210.829 C288.138058,211.479 287.570058,211.962 286.659058,211.962 L286.652058,211.962 C286.296058,211.961 285.162058,211.952 283.939058,211.176 C283.791058,211.088 283.707058,211.026 283.592058,210.956 C283.564058,210.938 283.516058,210.915 283.466058,210.915 C283.409058,210.915 283.350058,210.945 283.314058,211.05 L282.896058,212.201 C282.831058,212.37 282.918058,212.405 282.939058,212.433 C283.132058,212.574 283.326058,212.676 283.524058,212.789 C284.571058,213.347 285.561058,213.511 286.595058,213.513 L286.610058,213.513 C288.710058,213.513 290.016058,212.399 290.020058,210.602 L290.020058,210.567 C290.025058,208.901 288.548058,208.291 287.164058,207.851 L286.983058,207.793 C285.939058,207.451 285.038058,207.156 285.040058,206.469 L285.040058,206.434 C285.042058,205.848 285.567058,205.417 286.380058,205.417 L286.387058,205.417 C287.295058,205.42 288.370058,205.724 289.063058,206.109 C289.063058,206.109 289.130058,206.152 289.201058,206.152 C289.254058,206.152 289.310058,206.127 289.342058,206.043 C289.383058,205.936 289.736058,204.995 289.774058,204.892 C289.813058,204.782 289.744058,204.699 289.672058,204.655 C288.880058,204.172 287.786058,203.841 286.654058,203.838 M295.105058,203.878 C294.657058,203.878 293.949058,203.936 293.521058,204.02 C293.521058,204.02 292.220058,204.269 291.685058,204.686 C291.685058,204.686 291.567058,204.759 291.630058,204.923 L292.048058,206.055 C292.080058,206.142 292.143058,206.16 292.190058,206.16 C292.221058,206.16 292.244058,206.152 292.244058,206.152 L292.342058,206.102 C293.413058,205.525 294.747058,205.506 294.920058,205.506 L294.938058,205.506 C295.582058,205.507 296.077058,205.64 296.410058,205.894 C296.734058,206.145 296.898058,206.519 296.895058,207.313 L296.895058,207.564 C296.385058,207.489 295.913058,207.446 295.913058,207.446 C295.672058,207.427 295.359058,207.417 294.985058,207.416 L294.969058,207.416 C294.464058,207.416 293.976058,207.478 293.516058,207.601 C293.051058,207.725 292.632058,207.916 292.272058,208.172 C291.909058,208.43 291.619058,208.76 291.406058,209.151 C291.193058,209.542 291.085058,210.003 291.084058,210.519 C291.083058,211.047 291.172058,211.504 291.354058,211.878 C291.534058,212.254 291.794058,212.568 292.128058,212.81 C292.457058,213.052 292.866058,213.23 293.338058,213.338 C293.807058,213.446 294.336058,213.502 294.916058,213.503 L294.944058,213.503 C295.547058,213.503 296.144058,213.454 296.726058,213.357 C297.310058,213.259 298.027058,213.117 298.226058,213.07 C298.424058,213.025 298.643058,212.966 298.643058,212.966 C298.791058,212.928 298.780058,212.772 298.780058,212.772 L298.791058,207.335 C298.794058,206.141 298.477058,205.257 297.852058,204.707 C297.228058,204.16 296.308058,203.881 295.118058,203.878 L295.105058,203.878 M317.509058,203.917 L317.299058,203.918 L317.287058,203.918 C315.364058,203.918 314.019058,205.077 314.015058,206.741 L314.015058,206.776 C314.010058,208.532 315.496058,209.107 316.886058,209.507 L317.110058,209.577 C318.124058,209.89 318.999058,210.161 318.997058,210.872 L318.997058,210.909 C318.995058,211.558 318.427058,212.042 317.514058,212.042 L317.508058,212.042 C317.152058,212.041 316.019058,212.032 314.795058,211.255 C314.647058,211.167 314.559058,211.109 314.448058,211.036 C314.430058,211.025 314.381058,211.003 314.328058,211.003 C314.269058,211.003 314.204058,211.03 314.172058,211.13 L313.752058,212.281 C313.686058,212.449 313.774058,212.484 313.795058,212.513 C313.988058,212.654 314.182058,212.755 314.380058,212.869 C315.427058,213.426 316.417058,213.59 317.451058,213.593 L317.466058,213.593 C319.566058,213.593 320.871058,212.479 320.876058,210.681 L320.876058,210.647 C320.881058,208.981 319.403058,208.371 318.020058,207.93 L317.839058,207.873 C316.795058,207.531 315.894058,207.236 315.896058,206.549 L315.896058,206.514 C315.897058,205.928 316.423058,205.497 317.236058,205.497 L317.243058,205.497 C318.150058,205.499 319.226058,205.803 319.918058,206.188 C319.918058,206.188 319.985058,206.231 320.057058,206.231 C320.110058,206.231 320.166058,206.207 320.198058,206.122 C320.239058,206.015 320.592058,205.074 320.630058,204.972 C320.669058,204.862 320.600058,204.779 320.528058,204.735 C319.736058,204.252 318.643058,203.92 317.509058,203.917 M308.736058,203.923 C307.998058,203.923 307.328058,204.046 306.783058,204.3 C306.234058,204.554 305.773058,204.904 305.409058,205.341 C305.047058,205.776 304.774058,206.293 304.599058,206.882 C304.424058,207.467 304.334058,208.104 304.333058,208.778 C304.331058,209.464 304.420058,210.103 304.598058,210.677 C304.778058,211.257 305.067058,211.766 305.456058,212.191 C305.848058,212.617 306.350058,212.95 306.952058,213.185 C307.549058,213.417 308.273058,213.539 309.104058,213.539 L309.113058,213.539 C310.834058,213.539 311.741058,213.158 312.114058,212.953 C312.180058,212.915 312.243058,212.852 312.166058,212.668 L311.778058,211.579 C311.744058,211.485 311.674058,211.465 311.622058,211.465 C311.584058,211.465 311.555058,211.476 311.555058,211.476 C311.132058,211.631 310.536058,211.908 309.158058,211.908 L309.109058,211.908 C308.186058,211.904 307.501058,211.631 307.073058,211.203 C306.635058,210.768 306.419058,210.128 306.385058,209.225 L312.340058,209.245 C312.340058,209.245 312.497058,209.244 312.514058,209.09 C312.520058,209.027 312.721058,207.87 312.342058,206.53 C312.194058,205.966 311.826058,205.396 311.585058,205.136 C311.202058,204.722 310.828058,204.433 310.456058,204.273 C309.970058,204.063 309.389058,203.925 308.752058,203.923 L308.736058,203.923 M332.545058,203.983 C331.837058,203.983 331.206058,204.109 330.672058,204.357 C330.133058,204.606 329.678058,204.95 329.319058,205.38 C328.959058,205.807 328.688058,206.321 328.515058,206.902 C328.341058,207.482 328.252058,208.116 328.250058,208.789 C328.248058,209.461 328.334058,210.098 328.505058,210.677 C328.676058,211.259 328.943058,211.774 329.302058,212.204 C329.658058,212.635 330.113058,212.98 330.650058,213.226 C331.187058,213.471 331.821058,213.596 332.536058,213.598 L332.553058,213.598 C333.258058,213.598 333.886058,213.476 334.421058,213.235 C334.959058,212.993 335.415058,212.65 335.775058,212.221 C336.134058,211.794 336.406058,211.281 336.580058,210.698 C336.753058,210.118 336.843058,209.483 336.844058,208.811 C336.846058,208.138 336.760058,207.504 336.589058,206.923 C336.419058,206.339 336.149058,205.824 335.793058,205.395 C335.436058,204.965 334.982058,204.618 334.444058,204.366 C333.907058,204.115 333.273058,203.985 332.560058,203.983 L332.545058,203.983 M348.770058,204.017 C348.040058,204.017 347.388058,204.142 346.829058,204.389 C346.265058,204.636 345.788058,204.981 345.408058,205.409 C345.029058,205.838 344.741058,206.351 344.550058,206.932 C344.356058,207.512 344.259058,208.148 344.258058,208.824 C344.254058,210.28 344.643058,211.458 345.419058,212.321 C346.196058,213.19 347.364058,213.632 348.889058,213.636 L348.906058,213.636 C349.802058,213.636 350.719058,213.456 351.382058,213.199 C351.382058,213.199 351.509058,213.137 351.453058,212.989 L351.024058,211.797 C350.992058,211.7 350.924058,211.679 350.871058,211.679 C350.831058,211.679 350.800058,211.691 350.800058,211.691 C350.544058,211.789 350.272058,211.877 349.981058,211.921 C349.694058,211.967 349.377058,211.988 349.038058,211.988 L349.017058,211.988 C348.167058,211.986 347.489058,211.731 347.006058,211.231 C346.523058,210.729 346.251058,209.92 346.257058,208.827 C346.263058,207.834 346.505058,207.087 346.938058,206.517 C347.367058,205.953 348.018058,205.664 348.883058,205.664 L348.893058,205.664 C349.618058,205.666 350.172058,205.751 350.751058,205.934 C350.751058,205.934 350.773058,205.944 350.804058,205.944 C350.851058,205.944 350.916058,205.922 350.955058,205.814 C351.112058,205.386 351.226058,205.083 351.392058,204.615 C351.439058,204.481 351.324058,204.425 351.282058,204.408 C351.055058,204.319 350.517058,204.171 350.110058,204.108 C349.731058,204.05 349.285058,204.018 348.790058,204.017 L348.770058,204.017 M356.431058,204.046 C355.694058,204.046 355.025058,204.169 354.480058,204.422 C353.931058,204.677 353.470058,205.027 353.106058,205.464 C352.744058,205.898 352.471058,206.416 352.296058,207.005 C352.121058,207.59 352.031058,208.227 352.029058,208.901 C352.028058,209.587 352.116058,210.226 352.295058,210.8 C352.474058,211.381 352.763058,211.889 353.153058,212.314 C353.545058,212.74 354.047058,213.073 354.649058,213.308 C355.245058,213.54 355.969058,213.662 356.799058,213.662 L356.810058,213.662 C358.530058,213.662 359.437058,213.281 359.811058,213.076 C359.878058,213.039 359.939058,212.975 359.863058,212.791 L359.475058,211.701 C359.441058,211.608 359.371058,211.588 359.319058,211.588 C359.281058,211.588 359.251058,211.599 359.251058,211.599 C358.829058,211.754 358.233058,212.031 356.855058,212.031 L356.805058,212.031 C355.881058,212.027 355.198058,211.754 354.770058,211.326 C354.332058,210.891 354.116058,210.251 354.082058,209.348 L360.037058,209.368 C360.037058,209.368 360.193058,209.367 360.210058,209.213 C360.217058,209.15 360.417058,207.993 360.039058,206.653 C359.891058,206.089 359.522058,205.519 359.281058,205.259 C358.899058,204.845 358.523058,204.556 358.153058,204.395 C357.668058,204.186 357.086058,204.048 356.447058,204.046 L356.431058,204.046 M342.564058,204.108 C342.001058,204.108 341.652058,204.22 341.334058,204.362 C340.963058,204.527 340.554058,204.796 340.326058,205.101 L340.327058,204.376 C340.327058,204.276 340.256058,204.196 340.157058,204.196 L338.630058,204.192 C338.530058,204.192 338.459058,204.271 338.459058,204.371 L338.436058,213.24 C338.435058,213.339 338.515058,213.419 338.616058,213.42 L340.181058,213.424 C340.281058,213.424 340.361058,213.344 340.361058,213.245 L340.373058,208.814 C340.374058,208.219 340.442058,207.626 340.575058,207.254 C340.704058,206.885 340.880058,206.592 341.098058,206.381 C341.316058,206.171 341.564058,206.024 341.836058,205.941 C342.110058,205.858 342.414058,205.83 342.628058,205.83 L342.633058,205.83 C342.946058,205.831 343.287058,205.914 343.287058,205.914 C343.296058,205.915 343.305058,205.915 343.313058,205.915 C343.413058,205.915 343.470058,205.848 343.506058,205.753 C343.608058,205.482 343.902058,204.667 343.957058,204.506 C344.002058,204.371 343.907058,204.307 343.868058,204.292 C343.767058,204.253 343.260058,204.145 342.870058,204.118 C342.762058,204.112 342.660058,204.108 342.564058,204.108 M293.533058,211.617 C293.300058,211.431 293.268058,211.384 293.192058,211.263 C293.073058,211.08 293.013058,210.821 293.013058,210.49 C293.015058,209.968 293.190058,209.591 293.548058,209.341 C293.545058,209.341 294.041058,208.914 295.200058,208.914 C295.225058,208.914 295.251058,208.915 295.277058,208.915 C296.130058,208.928 296.894058,209.057 296.894058,209.057 L296.887058,211.76 C296.887058,211.76 296.130058,211.919 295.278058,211.968 C295.185058,211.974 295.095058,211.976 295.010058,211.976 C294.499058,211.976 294.130058,211.886 293.888058,211.797 C293.646058,211.707 293.532058,211.617 293.533058,211.617 M358.361058,207.892 L354.113058,207.88 C354.199058,207.314 354.356058,206.845 354.598058,206.479 C354.962058,205.925 355.517058,205.619 356.295058,205.619 L356.302058,205.619 C357.085058,205.621 357.599058,205.93 357.969058,206.488 C358.214058,206.856 358.320058,207.345 358.361058,207.892 M332.548058,212.023 L332.540058,212.023 C331.757058,212.021 331.201058,211.745 330.837058,211.183 C330.468058,210.616 330.283058,209.812 330.286058,208.794 C330.288058,207.778 330.478058,206.976 330.848058,206.416 C331.215058,205.865 331.769058,205.596 332.547058,205.596 L332.556058,205.596 C333.337058,205.598 333.897058,205.869 334.266058,206.425 C334.640058,206.987 334.828058,207.79 334.825058,208.806 C334.822058,209.823 334.630058,210.626 334.254058,211.192 C333.883058,211.75 333.324058,212.023 332.548058,212.023 M310.664058,207.769 L306.416058,207.757 C306.502058,207.192 306.659058,206.722 306.900058,206.356 C307.267058,205.803 307.820058,205.497 308.597058,205.497 L308.606058,205.497 C309.388058,205.499 309.904058,205.808 310.274058,206.365 C310.518058,206.733 310.623058,207.222 310.664058,207.769 M285.107058,234.066 C276.203058,234.043 268.977058,226.713 269.000058,217.726 C269.015058,211.923 272.125058,206.52 277.115058,203.626 L277.884058,203.181 L277.531058,202.365 C276.504058,199.985 275.985058,197.456 275.992058,194.847 C276.018058,184.444 284.517058,176 294.948058,176 L294.997058,176 C300.955058,176.016 306.443058,178.741 310.053058,183.478 L310.758058,184.403 L311.566058,183.566 C314.848058,180.171 319.214058,178.351 323.889058,178.321 C330.053058,178.337 335.784058,181.751 338.846058,187.23 L339.290058,188.025 L340.124058,187.657 C342.812058,186.467 345.672058,185.864 348.628058,185.864 L348.681058,185.864 C360.344058,185.894 369.809058,195.477 369.778058,207.226 C369.748058,218.957 360.264058,228.48 348.626058,228.48 L348.571058,228.48 C347.178058,228.476 345.775058,228.333 344.404058,228.054 L343.692058,227.91 L343.334058,228.543 C340.638058,233.317 335.567058,236.277 330.093058,236.277 L330.054058,236.277 C327.724058,236.271 325.489058,235.752 323.411058,234.733 L322.466058,234.27 L322.052058,235.237 C319.292058,241.674 312.989058,245.826 305.984058,245.826 L305.940058,245.826 C298.651058,245.807 292.073058,241.201 289.569058,234.365 L289.272058,233.554 L288.426058,233.73 C287.353058,233.953 286.250058,234.066 285.146058,234.066 L285.107058,234.066 M295.003058,174 L294.947058,174 C283.417058,174 274.021058,183.338 273.992058,194.842 C273.986058,197.435 274.448058,199.957 275.367058,202.352 C270.200058,205.693 267.016058,211.503 267.000058,217.722 C266.975058,227.811 275.095058,236.04 285.102058,236.066 C285.166058,236.067 285.230058,236.068 285.295058,236.068 C286.191058,236.068 287.108058,235.982 287.999058,235.841 C290.994058,243.023 298.097058,247.805 305.934058,247.826 L305.984058,247.826 C313.447058,247.825 320.197058,243.595 323.463058,236.953 C325.547058,237.826 327.758058,238.271 330.048058,238.277 L330.093058,238.277 C336.046058,238.277 341.578058,235.183 344.708058,230.146 C345.984058,230.364 347.277058,230.477 348.566058,230.48 L348.626058,230.48 C361.363058,230.48 371.745058,220.062 371.778058,207.23 C371.811058,194.379 361.452058,183.897 348.686058,183.864 L348.628058,183.864 C345.692058,183.864 342.840058,184.408 340.137058,185.482 C336.629058,179.826 330.484058,176.338 323.895058,176.321 L323.844058,176.321 C319.022058,176.321 314.482058,178.111 310.937058,181.387 C306.955058,176.694 301.210058,174.016 295.003058,174" id="sales" sketch:type="MSShapeGroup"></path>
        </g>
    </g>
</svg>